<?xml version="1.0" standalone="no"?>
<!DOCTYPE svg PUBLIC "-//W3C//DTD SVG 20010904//EN"
 "http://www.w3.org/TR/2001/REC-SVG-20010904/DTD/svg10.dtd">
<svg version="1.0" xmlns="http://www.w3.org/2000/svg"
 width="500.000000pt" height="500.000000pt" viewBox="0 0 500.000000 500.000000"
 preserveAspectRatio="xMidYMid meet">
<metadata>
Created by potrace 1.14, written by Peter Selinger 2001-2017
</metadata>
<g transform="translate(0.000000,500.000000) scale(0.100000,-0.100000)"
fill="#000000" stroke="none">
<path d="M2387 4904 c-3 -3 -31 -6 -63 -8 -33 -2 -59 -5 -59 -6 0 -2 -34 -10
-63 -14 -13 -1 -27 -9 -32 -16 -4 -7 -13 -9 -20 -5 -6 4 -17 0 -23 -8 -14 -18
-99 -43 -139 -41 -19 1 -29 -5 -34 -18 -3 -11 -8 -17 -11 -14 -3 3 -14 -6 -25
-19 -14 -18 -29 -25 -54 -25 -21 0 -33 -4 -29 -10 3 -5 1 -10 -5 -10 -6 0 -9
8 -6 18 6 18 -36 52 -81 66 -19 6 -21 4 -18 -15 6 -33 64 -89 84 -82 19 7 1
-9 -78 -68 -30 -22 -62 -49 -71 -60 -10 -10 -20 -16 -24 -12 -3 3 -6 1 -6 -6
0 -8 -7 -11 -15 -7 -8 3 -15 1 -15 -3 0 -5 5 -11 12 -13 7 -3 5 -7 -6 -11 -10
-4 -15 -3 -11 3 11 17 -11 11 -28 -8 -10 -10 -14 -22 -10 -25 3 -4 1 -7 -5 -7
-7 0 -12 -5 -12 -11 0 -6 -9 -22 -20 -36 -24 -31 -26 -56 -5 -73 11 -9 13 -16
5 -24 -13 -13 -13 -29 0 -21 9 6 11 1 14 -33 1 -7 8 -17 16 -22 8 -5 11 -10 5
-10 -7 0 -7 -3 0 -8 6 -4 15 -16 21 -27 6 -11 21 -21 33 -21 12 -1 19 1 15 5
-3 3 -10 6 -15 6 -11 0 -13 19 -2 22 4 1 20 -15 36 -36 25 -37 28 -55 14 -91
-32 -80 -48 -174 -53 -315 -3 -66 -6 -139 -7 -163 -1 -23 0 -42 3 -42 3 0 6
-10 7 -21 1 -12 9 -49 17 -83 8 -33 18 -76 21 -95 3 -19 8 -38 10 -42 7 -11
-16 -5 -57 15 -50 24 -71 11 -90 -56 -13 -47 -16 -171 -6 -218 12 -52 34 -110
41 -110 4 0 6 -4 2 -9 -3 -5 0 -13 5 -16 13 -8 31 -50 37 -83 5 -31 -9 -47
-65 -74 -59 -29 -389 -343 -488 -463 -27 -33 -51 -62 -54 -65 -15 -14 -100
-141 -121 -180 -20 -37 -24 -60 -23 -130 0 -81 8 -134 55 -350 25 -114 41
-163 69 -218 l22 -41 -92 -88 c-51 -48 -97 -93 -104 -99 -6 -5 -42 -28 -81
-49 -38 -21 -86 -48 -106 -61 -43 -27 -109 -56 -109 -47 0 3 -6 0 -13 -6 -8
-6 -16 -8 -19 -5 -3 3 -21 -13 -39 -36 -19 -22 -60 -68 -92 -102 -31 -34 -57
-65 -57 -70 0 -17 -82 -107 -104 -114 -42 -13 -55 -42 -52 -108 1 -37 -3 -74
-12 -96 -24 -56 -50 -192 -45 -230 10 -68 10 -75 -4 -96 -8 -12 -16 -35 -19
-50 -2 -16 -7 -41 -10 -57 l-6 -27 2491 0 2491 0 0 230 c0 196 -2 231 -15 236
-8 4 -15 14 -15 25 0 10 -6 22 -13 26 -8 4 -27 31 -42 58 -28 49 -154 207
-204 255 -60 58 -171 146 -234 187 -66 43 -147 118 -147 136 0 5 -9 20 -20 34
-11 14 -20 37 -20 50 0 14 -9 42 -21 62 -18 32 -38 50 -104 95 -19 13 -18 16
17 92 20 44 39 92 43 108 7 31 8 134 1 176 -2 14 -7 48 -11 75 -4 28 -11 55
-16 61 -5 6 -7 13 -4 15 2 3 -1 22 -6 44 -5 22 -12 53 -15 69 -15 79 -127 336
-146 336 -5 0 -6 5 -3 10 3 6 1 10 -4 10 -6 0 -11 5 -11 11 0 6 -6 17 -12 24
-7 8 -24 29 -38 46 -53 69 -120 129 -232 212 -64 48 -121 87 -126 87 -5 0 -15
7 -22 15 -6 7 -37 28 -68 46 -31 17 -71 42 -88 55 l-31 23 13 83 c7 46 16 101
19 123 4 22 8 73 10 114 5 95 -11 122 -65 110 -59 -14 -59 -14 -54 48 3 32 10
61 17 65 7 4 9 8 6 8 -4 0 -3 17 2 38 5 20 12 47 14 60 3 12 8 34 11 50 10 45
12 245 2 277 -5 17 -11 46 -14 65 -3 19 -7 42 -10 50 -3 8 -8 27 -11 43 -8 49
-63 171 -90 199 -22 23 -27 38 -29 95 -2 38 -4 75 -6 83 -7 28 -48 113 -78
162 -17 27 -30 56 -31 66 0 16 -1 16 -7 -1 -7 -17 -8 -17 -27 0 -38 34 -114
94 -117 92 -2 -2 -15 8 -30 22 -14 14 -39 31 -55 39 -15 8 -30 18 -33 22 -9
12 -142 70 -147 64 -3 -3 -15 -1 -26 5 -12 7 -17 7 -13 1 3 -5 -1 -13 -10 -16
-8 -3 -12 -2 -9 4 3 6 -4 11 -17 11 -13 1 -39 3 -58 5 -74 8 -159 12 -163 8z
m-596 -151 l24 -27 -32 23 c-33 23 -40 31 -25 31 5 0 19 -12 33 -27z"/>
</g>
</svg>
